/* XPM */
static char * cash_xpm[] = {
"32 32 499 2",
"  	c None",
". 	c #EAD25E",
"+ 	c #E7CF5C",
"@ 	c #E4CD61",
"# 	c #E6CF59",
"$ 	c #E9D158",
"% 	c #FFEC56",
"& 	c #CAAE38",
"* 	c #C8AA38",
"= 	c #EACC3B",
"- 	c #E7C636",
"; 	c #EAC937",
"> 	c #EBC937",
", 	c #EBC838",
"' 	c #E7C537",
") 	c #E8C83A",
"! 	c #C9AB36",
"~ 	c #C5A634",
"{ 	c #FFDF41",
"] 	c #F3DC4B",
"^ 	c #C7A331",
"/ 	c #F2D83F",
"( 	c #FBDD40",
"_ 	c #F5D53C",
": 	c #F6D33B",
"< 	c #F4D03B",
"[ 	c #F4D03A",
"} 	c #F5D13A",
"| 	c #F4D13A",
"1 	c #F9D53C",
"2 	c #F3CF3A",
"3 	c #B2932B",
"4 	c #EAC93B",
"5 	c #F1DC59",
"6 	c #DEC03F",
"7 	c #F0D641",
"8 	c #F9E143",
"9 	c #F7DB41",
"0 	c #F6D63C",
"a 	c #F8D639",
"b 	c #FAD22A",
"c 	c #F3C921",
"d 	c #F1C824",
"e 	c #F1C720",
"f 	c #FACF28",
"g 	c #F4CE36",
"h 	c #F5CD38",
"i 	c #F3D03B",
"j 	c #FFDD3F",
"k 	c #E9C437",
"l 	c #CFAE34",
"m 	c #D6B73D",
"n 	c #ECDA6C",
"o 	c #E6C839",
"p 	c #FDE746",
"q 	c #F6DE43",
"r 	c #F8DE42",
"s 	c #F5D83F",
"t 	c #F2D44D",
"u 	c #E0C767",
"v 	c #D0C9B8",
"w 	c #D0D2DF",
"x 	c #CDD0E2",
"y 	c #CCCEDC",
"z 	c #C7C0B3",
"A 	c #D9BE62",
"B 	c #EBC948",
"C 	c #D5B032",
"D 	c #DDB934",
"E 	c #ECC836",
"F 	c #FBD63B",
"G 	c #DBB731",
"H 	c #CCAF48",
"I 	c #EED44E",
"J 	c #E5C737",
"K 	c #F6DD43",
"L 	c #FAE13F",
"M 	c #EDD037",
"N 	c #E5DCB5",
"O 	c #DEDED8",
"P 	c #D9DBE4",
"Q 	c #D7D7D9",
"R 	c #CCCCCC",
"S 	c #D1D1D0",
"T 	c #CFCFCF",
"U 	c #CFCFD1",
"V 	c #CDCFD7",
"W 	c #CFCDC8",
"X 	c #D1C7A5",
"Y 	c #D0A92B",
"Z 	c #DCB832",
"` 	c #F1CE38",
" .	c #EEC937",
"..	c #DFB931",
"+.	c #D4B038",
"@.	c #D6B338",
"#.	c #FDDF41",
"$.	c #F7DB40",
"%.	c #F7DB3F",
"&.	c #E8D15A",
"*.	c #E6E9FF",
"=.	c #E4E4E2",
"-.	c #DFDFDF",
";.	c #E0E0E0",
">.	c #EBEBEB",
",.	c #CBCBCB",
"'.	c #CACACA",
").	c #C8C8C8",
"!.	c #C7C7C7",
"~.	c #CDCDCC",
"{.	c #D6DCF3",
"].	c #D2B249",
"^.	c #E2BE39",
"/.	c #E9C337",
"(.	c #F3CD39",
"_.	c #C9A32F",
":.	c #EBC73C",
"<.	c #EECA39",
"[.	c #F6D53D",
"}.	c #F9D93B",
"|.	c #E6CB58",
"1.	c #E5E4E5",
"2.	c #B4B4B2",
"3.	c #AFAFB0",
"4.	c #E9E9E9",
"5.	c #EAEAEA",
"6.	c #E7E7E7",
"7.	c #AEAEAE",
"8.	c #C4C4C4",
"9.	c #C1C1C1",
"0.	c #BFBFBF",
"a.	c #C6C6C6",
"b.	c #C8C8C7",
"c.	c #BDBCBA",
"d.	c #D9B544",
"e.	c #E0B831",
"f.	c #EFC637",
"g.	c #DFB632",
"h.	c #DAB032",
"i.	c #F6D13F",
"j.	c #D1A933",
"k.	c #F5D139",
"l.	c #F4D038",
"m.	c #EAC533",
"n.	c #DFE4FC",
"o.	c #DDDDDC",
"p.	c #DEDEDE",
"q.	c #DADADA",
"r.	c #E6E6E6",
"s.	c #D8D8D8",
"t.	c #BCBCBC",
"u.	c #BABABA",
"v.	c #B8B8B8",
"w.	c #BBBBBB",
"x.	c #C2C2C2",
"y.	c #C5C5C5",
"z.	c #CFCECD",
"A.	c #C4CAE2",
"B.	c #D4A728",
"C.	c #E9C036",
"D.	c #E0B632",
"E.	c #C89B2C",
"F.	c #DDAE31",
"G.	c #D5AC36",
"H.	c #EDC535",
"I.	c #F0C737",
"J.	c #EFC937",
"K.	c #D9D0AF",
"L.	c #D8D8D6",
"M.	c #D5D5D5",
"N.	c #D1D1D1",
"O.	c #CDCDCD",
"P.	c #F1F1F1",
"Q.	c #888888",
"R.	c #B7B7B7",
"S.	c #B3B3B3",
"T.	c #BDBDBD",
"U.	c #C3C3C3",
"V.	c #BCBCBA",
"W.	c #BCAF8B",
"X.	c #D7AE31",
"Y.	c #D1A72F",
"Z.	c #E5B732",
"`.	c #C3952D",
" +	c #DDB436",
".+	c #ECC136",
"++	c #ECC235",
"@+	c #E8C346",
"#+	c #CDCBC7",
"$+	c #DCDCDC",
"%+	c #D4D4D4",
"&+	c #C9C9C9",
"*+	c #B1B1B1",
"=+	c #B0B0B0",
"-+	c #B9B9B9",
";+	c #979797",
">+	c #C0C0C0",
",+	c #D1CFC6",
"'+	c #DFB53E",
")+	c #DCAE2F",
"!+	c #E2B331",
"~+	c #CEA030",
"{+	c #DAB349",
"]+	c #E2B431",
"^+	c #E8BB32",
"/+	c #ECC132",
"(+	c #D3B55E",
"_+	c #C6C9D2",
":+	c #D2D2D2",
"<+	c #ABABAB",
"[+	c #A0A0A0",
"}+	c #929292",
"|+	c #B6B6B6",
"1+	c #ACACAC",
"2+	c #A8A8A8",
"3+	c #BEBEBE",
"4+	c #B2B5BD",
"5+	c #D1AE54",
"6+	c #DCAD2E",
"7+	c #DFB02F",
"8+	c #D9A62D",
"9+	c #A68135",
"0+	c #D8B144",
"a+	c #DEAF30",
"b+	c #E7B833",
"c+	c #F0BB1F",
"d+	c #ADACB0",
"e+	c #C3C4C4",
"f+	c #A9A9A9",
"g+	c #A4A4A4",
"h+	c #8F8F8F",
"i+	c #A1A1A1",
"j+	c #969696",
"k+	c #B5B6B8",
"l+	c #ABA495",
"m+	c #E0AB21",
"n+	c #DFAF2F",
"o+	c #DAA92E",
"p+	c #B38C39",
"q+	c #D1A73C",
"r+	c #E0AD1D",
"s+	c #B7BECF",
"t+	c #BCBCBB",
"u+	c #9D9D9D",
"v+	c #999999",
"w+	c #8C8C8C",
"x+	c #8E8E8E",
"y+	c #B4B4B4",
"z+	c #ADADAD",
"A+	c #AFAEAE",
"B+	c #A3ABBB",
"C+	c #DAA31B",
"D+	c #E6B632",
"E+	c #DBAA2D",
"F+	c #B18831",
"G+	c #CDA036",
"H+	c #DAA82D",
"I+	c #DFAE2E",
"J+	c #DCAA24",
"K+	c #AFB5C6",
"L+	c #B6B6B5",
"M+	c #B2B2B2",
"N+	c #A6A6A6",
"O+	c #A2A2A2",
"P+	c #9F9F9F",
"Q+	c #9C9C9C",
"R+	c #7E7E7E",
"S+	c #939393",
"T+	c #9A9A9A",
"U+	c #9A9A99",
"V+	c #9DA3B2",
"W+	c #D2A228",
"X+	c #A98127",
"Y+	c #E5B231",
"Z+	c #B3882D",
"`+	c #CBA03A",
" @	c #D6A52C",
".@	c #DBAA2F",
"+@	c #DAA41D",
"@@	c #ACB2C3",
"#@	c #B2B2B1",
"$@	c #959595",
"%@	c #9E9E9E",
"&@	c #9B9B9B",
"*@	c #919191",
"=@	c #949494",
"-@	c #8A8A8A",
";@	c #9E9E9D",
">@	c #A2A9B6",
",@	c #D4A01D",
"'@	c #E6B631",
")@	c #CB9B2B",
"!@	c #B58B33",
"~@	c #D0A649",
"{@	c #CE9F2A",
"]@	c #D7A62E",
"^@	c #E4AB1D",
"/@	c #9498A0",
"(@	c #B0B0AF",
"_@	c #AFAFAF",
":@	c #989898",
"<@	c #7F7F7F",
"[@	c #858585",
"}@	c #949495",
"|@	c #7F8183",
"1@	c #E4AB21",
"2@	c #E9B934",
"3@	c #B78724",
"4@	c #BB9141",
"5@	c #C39941",
"6@	c #CB9B2A",
"7@	c #D5A42C",
"8@	c #DCAA2C",
"9@	c #B69852",
"0@	c #A8ABB2",
"a@	c #878787",
"b@	c #818181",
"c@	c #8B8B8B",
"d@	c #828282",
"e@	c #898989",
"f@	c #868686",
"g@	c #85888E",
"h@	c #9D7F41",
"i@	c #C19128",
"j@	c #B18426",
"k@	c #D09A2B",
"l@	c #AF863B",
"m@	c #C9982C",
"n@	c #D2A22B",
"o@	c #D5A42D",
"p@	c #CDA33A",
"q@	c #A2A1A0",
"r@	c #A5A5A5",
"s@	c #808080",
"t@	c #838383",
"u@	c #858481",
"v@	c #C29536",
"w@	c #C08E2A",
"x@	c #BF8C29",
"y@	c #BA8628",
"z@	c #AD8127",
"A@	c #D7A52D",
"B@	c #D4A22C",
"C@	c #D2A12E",
"D@	c #99907A",
"E@	c #818180",
"F@	c #777777",
"G@	c #767676",
"H@	c #7A7A7A",
"I@	c #848484",
"J@	c #909090",
"K@	c #908F8F",
"L@	c #887D69",
"M@	c #B2832A",
"N@	c #A57623",
"O@	c #A67122",
"P@	c #C39131",
"Q@	c #D09D2E",
"R@	c #AE8225",
"S@	c #D2A02B",
"T@	c #D2A02C",
"U@	c #BB8D29",
"V@	c #8C93A2",
"W@	c #8C8B8B",
"X@	c #939392",
"Y@	c #8E94A0",
"Z@	c #B3872A",
"`@	c #A87925",
" #	c #A87221",
".#	c #CB9A31",
"+#	c #A06521",
"@#	c #BF8D29",
"##	c #C8952A",
"$#	c #CA972C",
"%#	c #CF9925",
"&#	c #A98540",
"*#	c #868788",
"=#	c #848483",
"-#	c #9D9C9C",
";#	c #919393",
">#	c #B7984C",
",#	c #BF8A23",
"'#	c #BC8527",
")#	c #B27C26",
"!#	c #AD7726",
"~#	c #BA8526",
"{#	c #C38D29",
"]#	c #C28D28",
"^#	c #C18A27",
"/#	c #A58140",
"(#	c #747D8A",
"_#	c #7D7C7C",
":#	c #7D7D7D",
"<#	c #A3A3A3",
"[#	c #9D9D9C",
"}#	c #9BA3B1",
"|#	c #BA9C52",
"1#	c #BB8925",
"2#	c #A47423",
"3#	c #BA8126",
"4#	c #B9842A",
"5#	c #A67829",
"6#	c #BF8727",
"7#	c #BA8328",
"8#	c #BA8227",
"9#	c #BE8123",
"0#	c #AB7C2B",
"a#	c #837864",
"b#	c #777675",
"c#	c #74767B",
"d#	c #7B7B7B",
"e#	c #818080",
"f#	c #898988",
"g#	c #919190",
"h#	c #99999A",
"i#	c #9EA1A7",
"j#	c #A4A5A5",
"k#	c #AAA087",
"l#	c #CAA33F",
"m#	c #CE9925",
"n#	c #C9962B",
"o#	c #BD8926",
"p#	c #C08A2B",
"q#	c #B48634",
"r#	c #946826",
"s#	c #B97F27",
"t#	c #B37925",
"u#	c #B27724",
"v#	c #AF7625",
"w#	c #A8752F",
"x#	c #92774A",
"y#	c #707474",
"z#	c #6F7883",
"A#	c #777F8C",
"B#	c #848B9A",
"C#	c #94959A",
"D#	c #B6A067",
"E#	c #CFA53E",
"F#	c #D5A832",
"G#	c #BE8B28",
"H#	c #CA992A",
"I#	c #CA9528",
"J#	c #C8942F",
"K#	c #AE8232",
"L#	c #A27228",
"M#	c #AF7724",
"N#	c #AF7525",
"O#	c #A86D21",
"P#	c #AA7023",
"Q#	c #AA6F22",
"R#	c #AE7020",
"S#	c #BA7718",
"T#	c #BB7E1F",
"U#	c #BF8626",
"V#	c #C99020",
"W#	c #D49A1B",
"X#	c #D49F25",
"Y#	c #CA972B",
"Z#	c #D4A12B",
"`#	c #CF9F2F",
" $	c #CA9A31",
".$	c #C1973A",
"+$	c #957241",
"@$	c #A56F22",
"#$	c #C08F2E",
"$$	c #9B611E",
"%$	c #A26920",
"&$	c #A36A21",
"*$	c #A76D23",
"=$	c #AF7423",
"-$	c #B57D23",
";$	c #BF8827",
">$	c #C6912A",
",$	c #CC982A",
"'$	c #CE9E2D",
")$	c #CA9525",
"!$	c #DDBB4C",
"~$	c #CA9830",
"{$	c #BB974D",
"]$	c #8C571E",
"^$	c #B08530",
"/$	c #986521",
"($	c #A36D23",
"_$	c #A66F23",
":$	c #AC7225",
"<$	c #B57C29",
"[$	c #BD8629",
"}$	c #C5912C",
"|$	c #CB9830",
"1$	c #C4922C",
"2$	c #D1AB4B",
"3$	c #BC8524",
"4$	c #825E2D",
"5$	c #8A6329",
"6$	c #966A2A",
"7$	c #9F6F25",
"8$	c #A6792F",
"9$	c #A77C30",
"0$	c #A37C34",
"                                                                ",
"                                                                ",
"                            . + @ # $                           ",
"                    % & * = - ; > , ' ) ! ~ {                   ",
"                  ] ^ / ( _ : < [ [ } | 1 2 3 4                 ",
"              5 6 7 8 9 0 a b c d e f g h i j k l m             ",
"            n o p q r s t u v w x y z A B C D E F G H           ",
"          I J K q L M N O P Q R S T U V W X Y Z `  ...+.        ",
"          @.#.$.%.&.*.=.-.;.>.,.'.).!.!.'.~.{.].^./.(._.        ",
"        :.<.[.}.|.1.2.3.4.5.6.7.8.9.0.9.a.).b.c.d.e.f.g.h.      ",
"      i.j.k.l.m.n.o.p.q.r.4.s.9.t.u.v.w.x.8.y.z.A.B.C.D.E.F.    ",
"      G.H.I.J.K.L.M.N.O.r.P.Q.x.R.S.S.R.8.T.U.).V.W.X.Y.Z.`.    ",
"       +.+++@+#+T R '.T $+%+&+R.*+=+=+-+;+T.T.>+>+,+'+)+!+~+    ",
"    {+]+^+/+(+_+).a.x.&+:+=+R.*+<+[+}+|+-+1+2+'.3+4+5+6+7+8+9+  ",
"    0+a+b+c+d+e+>+>+t.8.a.3+7.f+g+h+i+7.w.j+3+'.S.k+l+m+n+o+p+  ",
"    q+6+!+r+s+t+w.u.v.-+-+u+2+g+v+w+x+v+1+*+y+v.z+A+B+C+D+E+F+  ",
"    G+H+I+J+K+L+v.R.M+z+1+N+O+P+Q+u+u+R+S+T+i+S+|+U+V+W+X+Y+Z+  ",
"    `+ @.@+@@@#@S.M+<+P+u+$@%@&@;+}+*@=@-@%@T+P+g+;@>@,@'@)@!@  ",
"    ~@{@]@^@/@(@_@_@j+:@<@i+Q+v+&@S+h+}+&@h+[@%@w+}@|@1@2@3@4@  ",
"    5@6@7@8@9@0@<+N+a@w+b@Q+;+*@c@S+R+d@R+e@Q.f@f@g@h@i@j@k@l@  ",
"      m@n@o@p@q@r@h+d@s@:@$@=@-@-@t@=@T+&@S+h+<@<@u@v@w@x@y@    ",
"      z@A@B@C@D@E@F@F@G@H@I@t@f@[@I@j+S+&@J@=@w+K@L@M@N@O@P@    ",
"      Q@R@S@T@U@V@W@Q.a@a@a@-@h+e@}+:@&@&@:@*@X@Y@Z@`@ #.#+#    ",
"        @###$#%#&#*#=#t@t@[@a@-@I@}+T+%@[+T+-#;#>#,#'#)#!#      ",
"          ~#{#]#^#/#(#_#:#R+b@[@w+S+T+[+<#[#}#|#1#2#3#4#        ",
"          5#6#7#8#9#0#a#b#c#d#e#f#g#h#i#j#k#l#m#n#o#p#q#        ",
"            r#s#t#t#u#v#w#x#y#z#A#B#C#D#E#F#G#H#I#J#K#          ",
"              L#M#N#O#P#Q#R#S#T#U#V#W#X#o@Y#Z#`# $.$            ",
"                +$@$#$$$%$&$*$=$-$;$>$,$'$)$!$~${$              ",
"                    ]$^$/$($_$:$<$[$}$|$1$2$3$                  ",
"                          4$5$6$7$8$9$0$                        ",
"                                                                "};
